<svg xmlns="http://www.w3.org/2000/svg" viewBox="-15 -25 45 45">
  <!-- Generated by scratchpad pet-preview/gen-desktop.js; same pixel art
       as the Android pet_* drawables. -->
  <style>
    @keyframes toss { 0%,100% { transform: translateY(0); } 50% { transform: translateY(-2.2px); } }
    @keyframes bob { 0%,100% { transform: translateY(0); } 50% { transform: translateY(-0.3px); } }
    .pet { animation: bob 0.9s ease-in-out infinite; }
    .b1 { animation: toss 0.9s ease-in-out infinite; }
    .b2 { animation: toss 0.9s ease-in-out infinite 0.3s; }
    .b3 { animation: toss 0.9s ease-in-out infinite 0.6s; }
  </style>
  <g id="shadow" style="transform-origin:7.5px 15.5px"><path d="M3,15h9v1h-9z" fill="#000000" opacity="0.35"/></g>

<g class="ball b1"><path d="M0.8,1.8a1.2,1.2 0 1,0 2.4,0a1.2,1.2 0 1,0 -2.4,0z" fill="#FF5252"/><path d="M1.2,1.45a0.45,0.45 0 1,0 0.9,0a0.45,0.45 0 1,0 -0.9,0z" fill="#FF8A80" opacity="0.7"/></g>
<g class="ball b2"><path d="M6.3,-1.6a1.2,1.2 0 1,0 2.4,0a1.2,1.2 0 1,0 -2.4,0z" fill="#FFC107"/><path d="M6.7,-1.95a0.45,0.45 0 1,0 0.9,0a0.45,0.45 0 1,0 -0.9,0z" fill="#FFE082" opacity="0.7"/></g>
<g class="ball b3"><path d="M11.8,1.8a1.2,1.2 0 1,0 2.4,0a1.2,1.2 0 1,0 -2.4,0z" fill="#4CAF50"/><path d="M12.2,1.45a0.45,0.45 0 1,0 0.9,0a0.45,0.45 0 1,0 -0.9,0z" fill="#81C784" opacity="0.7"/></g>
  <path d="M3.2,13h2.2v1.6h-2.2z" fill="#E8912E"/><path d="M10.2,13h2.2v1.6h-2.2z" fill="#E8912E"/>
  <g class="pet">

    <path d="M2,5h11v8h-11z" fill="#3E4A66"/>
    <path d="M4,6.3h7v6.7h-7z" fill="#F7F9FC"/>
    <path d="M6.9,8.5h1.8v1.1h-1.8z" fill="#F5A340"/>
<path d="M0.4,6.6h1.6v3.6h-1.6z" fill="#2E3850"/><path d="M13.6,6.6h1.6v3.6h-1.6z" fill="#2E3850"/>
    <path d="M4.7,6.9h1v1.4h-1z" fill="#000000"/><path d="M9.9,6.9h1v1.4h-1z" fill="#000000"/>
  </g>
</svg>
