<svg xmlns="http://www.w3.org/2000/svg" viewBox="-15 -25 45 45">
  <!-- Generated by scratchpad pet-preview/gen-desktop.js; same pixel art
       as the Android pet_* drawables. -->
  <style>
    @keyframes sway { 0%,100% { transform: rotate(-2deg); } 50% { transform: rotate(2deg); } }
    @keyframes noteFloat { 0% { transform: translateY(1px); opacity: 0; } 30% { opacity: 1; } 100% { transform: translateY(-2.5px); opacity: 0; } }
    .pet { transform-origin: 7.5px 14px; animation: sway 1.6s ease-in-out infinite; }
    .noteL { animation: noteFloat 1.6s ease-in-out infinite; }
    .noteR { animation: noteFloat 1.6s ease-in-out infinite 0.8s; }
  </style>
  <g id="shadow" style="transform-origin:7.5px 15.5px"><path d="M3,15h9v1h-9z" fill="#000000" opacity="0.35"/></g>
  <path d="M3.2,13h2.2v1.6h-2.2z" fill="#E8912E"/><path d="M10.2,13h2.2v1.6h-2.2z" fill="#E8912E"/>
  <g class="pet">

    <path d="M2,5h11v8h-11z" fill="#3E4A66"/>
    <path d="M4,6.3h7v6.7h-7z" fill="#F7F9FC"/>
    <path d="M6.9,8.5h1.8v1.1h-1.8z" fill="#F5A340"/>
<path d="M0.6,8h1.5v3.6h-1.5z" fill="#2E3850"/><path d="M13.5,8h1.5v3.6h-1.5z" fill="#2E3850"/>
    
    <path d="M4.4,7.3 L5.2,8.1 L6,7.3" stroke="#000000" stroke-width="0.6" fill="none" stroke-linecap="round" stroke-linejoin="round"/>
    <path d="M9.6,7.3 L10.4,8.1 L11.2,7.3" stroke="#000000" stroke-width="0.6" fill="none" stroke-linecap="round" stroke-linejoin="round"/>

<path d="M4.9,2.85h5.05v0.75h-5.05z" fill="#1D5C83"/>
<path d="M4.46,2.93h0.75v0.75h-0.75z" fill="#1D5C83"/><path d="M9.66,2.93h0.75v0.75h-0.75z" fill="#1D5C83"/>
<path d="M4.03,3.1h0.75v0.75h-0.75z" fill="#1D5C83"/><path d="M10.11,3.09h0.75v0.75h-0.75z" fill="#1D5C83"/>
<path d="M3.59,3.34h0.75v0.75h-0.75z" fill="#1D5C83"/><path d="M10.57,3.33h0.75v0.75h-0.75z" fill="#1D5C83"/>
<path d="M3.15,3.63h0.75v0.75h-0.75z" fill="#1D5C83"/><path d="M11.02,3.61h0.75v0.75h-0.75z" fill="#1D5C83"/>
<path d="M2.71,3.98h0.75v0.75h-0.75z" fill="#1D5C83"/><path d="M11.48,3.96h0.75v0.75h-0.75z" fill="#1D5C83"/>
<path d="M2.28,4.37h0.75v0.75h-0.75z" fill="#1D5C83"/><path d="M11.94,4.34h0.75v0.75h-0.75z" fill="#1D5C83"/>
<path d="M1.84,4.82h0.75v0.75h-0.75z" fill="#1D5C83"/><path d="M12.39,4.78h0.75v0.75h-0.75z" fill="#1D5C83"/>
<path d="M1.4,5.3h0.75v0.75h-0.75z" fill="#1D5C83"/><path d="M12.85,5.25h0.75v0.75h-0.75z" fill="#1D5C83"/>
<path d="M0.2,7h0.6v2.4h-0.6z" fill="#1D5C83"/><path d="M0.8,6.5h0.6v3.25h-0.6z" fill="#256891"/><path d="M1.4,6h0.6v4.05h-0.6z" fill="#2E7AA8"/>
<path d="M14.2,7h0.6v2.4h-0.6z" fill="#1D5C83"/><path d="M13.6,6.5h0.6v3.25h-0.6z" fill="#256891"/><path d="M13,6h0.6v4.05h-0.6z" fill="#2E7AA8"/>
  </g>

<g class="noteL"><path d="M-5,6h1v1h-1z" fill="#FFC94D"/><path d="M-4,4h1v3h-1z" fill="#FFC94D"/><path d="M-3,4h1v1h-1z" fill="#FFC94D"/></g>
<g class="noteR"><path d="M15,6h1v1h-1z" fill="#FFC94D"/><path d="M16,4h1v3h-1z" fill="#FFC94D"/><path d="M17,4h1v1h-1z" fill="#FFC94D"/></g>
</svg>
