<svg xmlns="http://www.w3.org/2000/svg" viewBox="-15 -25 45 45">
  <!-- Generated by scratchpad pet-preview/gen-desktop.js; same pixel art
       as the Android pet_* drawables. -->
  <style>
    @keyframes hop { 0%,100% { transform: translateY(0); } 40% { transform: translateY(-1.2px); } }
    @keyframes ping { 0%,100% { transform: scale(1); opacity: 0.9; } 50% { transform: scale(1.18); opacity: 1; } }
    .pet { animation: hop 0.8s ease-in-out infinite; }
    .bang { transform-origin: 13.5px -2.5px; animation: ping 0.8s ease-in-out infinite; }
  </style>
  <g id="shadow" style="transform-origin:7.5px 15.5px"><path d="M3,15h9v1h-9z" fill="#000000" opacity="0.35"/></g>
  <path d="M3.2,13h2.2v1.6h-2.2z" fill="#E8912E"/><path d="M10.2,13h2.2v1.6h-2.2z" fill="#E8912E"/>
  <g class="pet">

    <path d="M2,5h11v8h-11z" fill="#3E4A66"/>
    <path d="M4,6.3h7v6.7h-7z" fill="#F7F9FC"/>
    <path d="M6.9,8.5h1.8v1.1h-1.8z" fill="#F5A340"/>
<path d="M0.6,8h1.5v3.6h-1.5z" fill="#2E3850"/><path d="M13.5,8h1.5v3.6h-1.5z" fill="#2E3850"/>
    <path d="M4.7,6.9h1v1.4h-1z" fill="#000000"/><path d="M9.9,6.9h1v1.4h-1z" fill="#000000"/>
  </g>
  <g class="bang">
    <path d="M12.4,-5.6a1.9,1.9 0 1,0 3.8,0a1.9,1.9 0 1,0 -3.8,0z" transform="translate(-1.5,3.1)" fill="#E85D5D"/>
    <path d="M12.55,-4.2h0.9v2.1h-0.9z" fill="#FFFFFF"/>
    <path d="M12.55,-1.6h0.9v0.9h-0.9z" fill="#FFFFFF"/>
  </g>
</svg>
