<svg xmlns="http://www.w3.org/2000/svg" viewBox="-15 -25 45 45">
  <!-- Generated by scratchpad pet-preview/gen-desktop.js; same pixel art
       as the Android pet_* drawables. -->
  <style>
    @keyframes slowBreathe { 0%,100% { transform: scaleY(1); } 50% { transform: scaleY(0.97); } }
    @keyframes zzFloat { 0% { transform: translateY(0.8px); opacity: 0; } 35% { opacity: 1; } 100% { transform: translateY(-2.2px); opacity: 0; } }
    .pet { transform-origin: 7.5px 15px; animation: slowBreathe 4s ease-in-out infinite; }
    .z1 { animation: zzFloat 3s ease-in-out infinite; }
    .z2 { animation: zzFloat 3s ease-in-out infinite 1s; }
    .z3 { animation: zzFloat 3s ease-in-out infinite 2s; }
  </style>
  <g id="shadow" style="transform-origin:7.5px 15.5px"><path d="M3,15h9v1h-9z" fill="#000000" opacity="0.35"/></g>
  <path d="M3.2,13h2.2v1.6h-2.2z" fill="#E8912E"/><path d="M10.2,13h2.2v1.6h-2.2z" fill="#E8912E"/>
  <g class="pet">

    <path d="M2,5h11v8h-11z" fill="#3E4A66"/>
    <path d="M4,6.3h7v6.7h-7z" fill="#F7F9FC"/>
    <path d="M6.9,8.5h1.8v1.1h-1.8z" fill="#F5A340"/>
<path d="M0.6,8h1.5v3.6h-1.5z" fill="#2E3850"/><path d="M13.5,8h1.5v3.6h-1.5z" fill="#2E3850"/>
    
    <path d="M4.4,7.6 h1.6" stroke="#000000" stroke-width="0.5" fill="none" stroke-linecap="round"/>
    <path d="M9.6,7.6 h1.6" stroke="#000000" stroke-width="0.5" fill="none" stroke-linecap="round"/>
  </g>

<g class="zz z1"><path d="M11,-1 h2.4 l-2.4,2.4 h2.4" stroke="#8FA3B8" stroke-width="0.5" fill="none" stroke-linecap="round" stroke-linejoin="round"/></g>
<g class="zz z2"><path d="M14,-4 h1.8 l-1.8,1.8 h1.8" stroke="#AEBECF" stroke-width="0.45" fill="none" stroke-linecap="round" stroke-linejoin="round"/></g>
<g class="zz z3"><path d="M16.4,-6.6 h1.4 l-1.4,1.4 h1.4" stroke="#C4D0DD" stroke-width="0.4" fill="none" stroke-linecap="round" stroke-linejoin="round"/></g>
</svg>
