<svg xmlns="http://www.w3.org/2000/svg" viewBox="-15 -25 45 45">
  <!-- Generated by scratchpad pet-preview/gen-desktop.js; same pixel art
       as the Android pet_* drawables. -->
  <style>
    @keyframes breathe { 0%,100% { transform: translateY(0); } 50% { transform: translateY(-0.3px); } }
    @keyframes dotPulse { 0%,60%,100% { opacity: 0.25; } 30% { opacity: 1; } }
    .pet { animation: breathe 3s ease-in-out infinite; }
    .d1 { animation: dotPulse 1.5s ease-in-out infinite; }
    .d2 { animation: dotPulse 1.5s ease-in-out infinite 0.25s; }
    .d3 { animation: dotPulse 1.5s ease-in-out infinite 0.5s; }
  </style>
  <g id="shadow" style="transform-origin:7.5px 15.5px"><path d="M3,15h9v1h-9z" fill="#000000" opacity="0.35"/></g>
  <g class="pet">

    <path d="M2,5h11v8h-11z" fill="#3E4A66"/>
    <path d="M4,6.3h7v6.7h-7z" fill="#F7F9FC"/>
    <path d="M6.9,8.5h1.8v1.1h-1.8z" fill="#F5A340"/>
<path d="M0.6,8h1.5v3.6h-1.5z" fill="#2E3850"/><path d="M13.5,8h1.5v3.6h-1.5z" fill="#2E3850"/>
    <path d="M4.7,6.9h1v1.4h-1z" fill="#000000"/><path d="M9.9,6.9h1v1.4h-1z" fill="#000000"/>
  </g>

<path d="M7.8,1.6a0.5,0.5 0 1,0 1,0a0.5,0.5 0 1,0 -1,0z" fill="#FFFFFF" stroke="#D8CCB4" stroke-width="0.15"/>
<path d="M8.55,-0.1a0.85,0.85 0 1,0 1.7,0a0.85,0.85 0 1,0 -1.7,0z" fill="#FFFFFF" stroke="#D8CCB4" stroke-width="0.15"/>
<path d="M8.1,-6.4h5.4a1.6,1.6 0 0,1 1.6,1.6v1.4a1.6,1.6 0 0,1 -1.6,1.6h-5.4a1.6,1.6 0 0,1 -1.6,-1.6v-1.4a1.6,1.6 0 0,1 1.6,-1.6z" fill="#FFFFFF" stroke="#D8CCB4" stroke-width="0.15"/>
<path class="dot d1" d="M8.15,-4.1a0.55,0.55 0 1,0 1.1,0a0.55,0.55 0 1,0 -1.1,0z" fill="#256891"/>
<path class="dot d2" d="M10.25,-4.1a0.55,0.55 0 1,0 1.1,0a0.55,0.55 0 1,0 -1.1,0z" fill="#256891"/>
<path class="dot d3" d="M12.35,-4.1a0.55,0.55 0 1,0 1.1,0a0.55,0.55 0 1,0 -1.1,0z" fill="#256891"/>
</svg>
