<svg xmlns="http://www.w3.org/2000/svg" viewBox="-15 -25 45 45">
  <!-- Generated by scratchpad pet-preview/gen-desktop.js; same pixel art
       as the Android pet_* drawables. -->
  <style>
    @keyframes drift { 0%,100% { transform: translateY(0); } 50% { transform: translateY(-0.8px); } }
    @keyframes glow { 0%,100% { opacity: 0.3; } 50% { opacity: 0.65; } }
    .t1 { animation: drift 2.6s ease-in-out infinite; }
    .t2 { animation: drift 2.6s ease-in-out infinite 0.6s; }
    .t3 { animation: drift 2.6s ease-in-out infinite 1.2s; }
    .t4 { animation: drift 2.6s ease-in-out infinite 1.8s; }
    .screenGlow { animation: glow 2s ease-in-out infinite; }
  </style>
  <g id="shadow" style="transform-origin:7.5px 15.5px"><path d="M3,15h9v1h-9z" fill="#000000" opacity="0.35"/></g>

<g class="tile t1"><path d="M2,4h2v2h-2z" fill="#40C4FF" opacity="0.55"/></g>
<g class="tile t2"><path d="M8,3h1.5v1.5h-1.5z" fill="#B388FF" opacity="0.55"/></g>
<g class="tile t3"><path d="M12,5h2v2h-2z" fill="#40C4FF" opacity="0.55"/></g>
<g class="tile t4"><path d="M5,3h1.5v1.5h-1.5z" fill="#69F0AE" opacity="0.55"/></g>
  <path d="M3.2,13h2.2v1.6h-2.2z" fill="#E8912E"/><path d="M10.2,13h2.2v1.6h-2.2z" fill="#E8912E"/>

    <path d="M2,5h11v8h-11z" fill="#3E4A66"/>
    <path d="M4,6.3h7v6.7h-7z" fill="#F7F9FC"/>
    <path d="M6.9,8.5h1.8v1.1h-1.8z" fill="#F5A340"/>
  <path d="M4.7,6.9h1v1.4h-1z" fill="#000000"/><path d="M9.9,6.9h1v1.4h-1z" fill="#000000"/>

<path d="M2.385,9a2.03,2.03 0 1,0 4.06,0a2.03,2.03 0 1,0 -4.06,0z" stroke="#33262B" stroke-width="0.56" fill="none" stroke-linecap="round" stroke-linejoin="round"/>
<path d="M8.555,9a2.03,2.03 0 1,0 4.06,0a2.03,2.03 0 1,0 -4.06,0z" stroke="#33262B" stroke-width="0.56" fill="none" stroke-linecap="round" stroke-linejoin="round"/>
<path d="M6.445,8.85 C7.036,8.35 7.964,8.35 8.555,8.85" stroke="#33262B" stroke-width="0.56" fill="none" stroke-linecap="round"/>
<path d="M2.426,8.45 C2.127,8.37 1.893,8.35 1.716,8.35" stroke="#33262B" stroke-width="0.56" fill="none" stroke-linecap="round"/>
<path d="M12.574,8.45 C12.873,8.37 13.107,8.35 13.284,8.35" stroke="#33262B" stroke-width="0.56" fill="none" stroke-linecap="round"/>

<path d="M3,10h8v4h-8z" fill="#4A90D9"/><path d="M7,10h1v4h-1z" fill="#2E6AB0"/>
<path d="M3.9,9.7h6.5v0.3h-6.5z" fill="#FFFDE7"/><path d="M10.5,10.5h0.5v3h-0.5z" fill="#FFFDE7"/>
<path class="screenGlow" d="M4.5,10.5h5v1.5h-5z" fill="#E3F2FD"/>
<path d="M5,10.8h3v0.5h-3z" fill="#2E6AB0"/><path d="M5.5,11.5h2v0.3h-2z" fill="#2E6AB0" opacity="0.6"/>
<path d="M6,12.5h2v0.5h-2z" fill="#E3F2FD" opacity="0.4"/>
</svg>
