<svg xmlns="http://www.w3.org/2000/svg" viewBox="-15 -25 45 45">
  <!-- Generated by scratchpad pet-preview/gen-desktop.js; same pixel art
       as the Android pet_* drawables. -->
  <style>
    @keyframes bob { 0%,100% { transform: translateY(0); } 50% { transform: translateY(-0.25px); } }
    @keyframes hammer { 0%,100% { transform: translateY(0); } 50% { transform: translateY(-0.9px); } }
    @keyframes lineOn { 0%,100% { opacity: 0.15; } 50% { opacity: 0.85; } }
    .pet { animation: bob 1.2s ease-in-out infinite; }
    .armL { animation: hammer 0.36s ease-in-out infinite; }
    .armR { animation: hammer 0.36s ease-in-out infinite 0.18s; }
    .cl1 { animation: lineOn 2.4s ease-in-out infinite; }
    .cl2 { animation: lineOn 2.4s ease-in-out infinite 0.5s; }
    .cl3 { animation: lineOn 2.4s ease-in-out infinite 1.0s; }
    .cl4 { animation: lineOn 2.4s ease-in-out infinite 1.5s; }
  </style>
  <g id="shadow" style="transform-origin:7.5px 15.5px"><path d="M3,15h9v1h-9z" fill="#000000" opacity="0.35"/></g>

<path d="M0.75,-6.0h13.5v10.5h-13.5z" fill="#1E1E2E"/>
<path d="M0.75,-6.0h13.5v1.2h-13.5z" fill="#2D2D3D"/>
<path d="M1.55,-5.6h0.5v0.4h-0.5z" fill="#FF5F56"/>
<path d="M2.45,-5.6h0.5v0.4h-0.5z" fill="#FFBD2E"/>
<path d="M3.35,-5.6h0.5v0.4h-0.5z" fill="#27C93F"/>
<path class="cl1" d="M1.75,-3.5h5v0.7h-5z" fill="#4CAF50"/>
<path class="cl2" d="M3.25,-1.8h8v0.7h-8z" fill="#4CAF50"/>
<path class="cl3" d="M3.25,-0.1h4.5v0.7h-4.5z" fill="#40C4FF"/>
<path class="cl4" d="M1.75,1.6h2v0.7h-2z" fill="#FFC107"/>
  <g class="pet">

    <path d="M2,5h11v8h-11z" fill="#3E4A66"/>
    <path d="M4,6.3h7v6.7h-7z" fill="#F7F9FC"/>
    <path d="M6.9,8.5h1.8v1.1h-1.8z" fill="#F5A340"/>
    <path d="M4.7,6.9h1v1.4h-1z" fill="#000000"/><path d="M9.9,6.9h1v1.4h-1z" fill="#000000"/>
  </g>

<path d="M-0.5,11.8h16v3.2h-16z" fill="#455A64"/>
<path d="M0,12.2h14.9v2.5h-14.9z" fill="#78909C" opacity="0.65"/>
  <g class="armL"><path d="M0.4,9.6h1.8v2h-1.8z" fill="#2E3850"/></g>
  <g class="armR"><path d="M13.4,9.6h1.8v2h-1.8z" fill="#2E3850"/></g>
</svg>
