<svg xmlns="http://www.w3.org/2000/svg" viewBox="-15 -25 45 45">
  <!-- Generated by scratchpad pet-preview/gen-desktop.js; same pixel art
       as the Android pet_* drawables. -->
  <style>
    @keyframes hop { 0%,100% { transform: translateY(0); } 40% { transform: translateY(-1.4px); } 60% { transform: translateY(-1.1px); } }
    .pet { animation: hop 0.9s ease-in-out infinite; }
  </style>
  <g id="shadow" style="transform-origin:7.5px 15.5px"><path d="M3,15h9v1h-9z" fill="#000000" opacity="0.35"/></g>
  <path d="M2.8,13h2.4v1.8h-2.4z" fill="#4E9E4A"/><path d="M10,13h2.4v1.8h-2.4z" fill="#4E9E4A"/>
  <g class="pet">

    <path d="M3,3.8h3v2.4h-3z" fill="#6FBF63"/>
    <path d="M9,3.8h3v2.4h-3z" fill="#6FBF63"/>
    <path d="M2,6h11v7h-11z" fill="#6FBF63"/>
    <path d="M4,9.4h7v3.6h-7z" fill="#EAF6DD"/>
    <path d="M6.4,7.6 Q7.5,8.5 8.6,7.6" stroke="#2E5E2B" stroke-width="0.5" fill="none" stroke-linecap="round"/>
    <path d="M2.9,7.4h1.3v0.8h-1.3z" fill="#F2A2A2" opacity="0.7"/>
    <path d="M11.4,7.4h1.3v0.8h-1.3z" fill="#F2A2A2" opacity="0.7"/>
<path d="M-0.2,8h1.8v2h-1.8z" fill="#6FBF63"/><path d="M13.9,8h1.8v2h-1.8z" fill="#6FBF63"/>
    
    <path d="M3.7,4.7 L4.5,5.5 L5.3,4.7" stroke="#000000" stroke-width="0.6" fill="none" stroke-linecap="round" stroke-linejoin="round"/>
    <path d="M9.7,4.7 L10.5,5.5 L11.3,4.7" stroke="#000000" stroke-width="0.6" fill="none" stroke-linecap="round" stroke-linejoin="round"/>
  </g>
</svg>
