<svg xmlns="http://www.w3.org/2000/svg" viewBox="-15 -25 45 45">
  <!-- Generated by scratchpad pet-preview/gen-desktop.js; same pixel art
       as the Android pet_* drawables. -->
  <style>
    @keyframes breathe { 0%,100% { transform: translateY(0); } 50% { transform: translateY(-0.3px); } }
    @keyframes blink { 0%, 92%, 100% { transform: scaleY(1); } 95% { transform: scaleY(0.12); } }
    #body-js { animation: breathe 3s ease-in-out infinite; }
    .blink { transform-origin: 7.5px 5px; animation: blink 4.5s ease-in-out infinite; }
  </style>
  <g id="shadow-js" style="transform-origin:7.5px 15.5px"><path d="M3,15h9v1h-9z" fill="#000000" opacity="0.35"/></g>
  <path d="M2.8,13h2.4v1.8h-2.4z" fill="#4E9E4A"/><path d="M10,13h2.4v1.8h-2.4z" fill="#4E9E4A"/>
  <g id="body-js" style="transform-origin:7.5px 13px">

    <path d="M3,3.8h3v2.4h-3z" fill="#6FBF63"/>
    <path d="M9,3.8h3v2.4h-3z" fill="#6FBF63"/>
    <path d="M2,6h11v7h-11z" fill="#6FBF63"/>
    <path d="M4,9.4h7v3.6h-7z" fill="#EAF6DD"/>
    <path d="M6.4,7.6 Q7.5,8.5 8.6,7.6" stroke="#2E5E2B" stroke-width="0.5" fill="none" stroke-linecap="round"/>
    <path d="M2.9,7.4h1.3v0.8h-1.3z" fill="#F2A2A2" opacity="0.7"/>
    <path d="M11.4,7.4h1.3v0.8h-1.3z" fill="#F2A2A2" opacity="0.7"/>
<path d="M0.6,9h1.6v2h-1.6z" fill="#6FBF63"/><path d="M13.4,9h1.6v2h-1.6z" fill="#6FBF63"/>
    <g id="eyes-js"><g class="blink"><path d="M4,4.4h1v1.2h-1z" fill="#000000"/><path d="M10,4.4h1v1.2h-1z" fill="#000000"/></g></g>
  </g>
</svg>
