<svg xmlns="http://www.w3.org/2000/svg" viewBox="-15 -25 45 45">
  <!-- Generated by scratchpad pet-preview/gen-desktop.js; same pixel art
       as the Android pet_* drawables. -->
  <style>
    @keyframes toss { 0%,100% { transform: translateY(0); } 50% { transform: translateY(-2.2px); } }
    @keyframes bob { 0%,100% { transform: translateY(0); } 50% { transform: translateY(-0.3px); } }
    .pet { animation: bob 0.9s ease-in-out infinite; }
    .b1 { animation: toss 0.9s ease-in-out infinite; }
    .b2 { animation: toss 0.9s ease-in-out infinite 0.3s; }
    .b3 { animation: toss 0.9s ease-in-out infinite 0.6s; }
  </style>
  <g id="shadow" style="transform-origin:7.5px 15.5px"><path d="M3,15h9v1h-9z" fill="#000000" opacity="0.35"/></g>

<g class="ball b1"><path d="M0.8,1.8a1.2,1.2 0 1,0 2.4,0a1.2,1.2 0 1,0 -2.4,0z" fill="#FF5252"/><path d="M1.2,1.45a0.45,0.45 0 1,0 0.9,0a0.45,0.45 0 1,0 -0.9,0z" fill="#FF8A80" opacity="0.7"/></g>
<g class="ball b2"><path d="M6.3,-1.6a1.2,1.2 0 1,0 2.4,0a1.2,1.2 0 1,0 -2.4,0z" fill="#FFC107"/><path d="M6.7,-1.95a0.45,0.45 0 1,0 0.9,0a0.45,0.45 0 1,0 -0.9,0z" fill="#FFE082" opacity="0.7"/></g>
<g class="ball b3"><path d="M11.8,1.8a1.2,1.2 0 1,0 2.4,0a1.2,1.2 0 1,0 -2.4,0z" fill="#4CAF50"/><path d="M12.2,1.45a0.45,0.45 0 1,0 0.9,0a0.45,0.45 0 1,0 -0.9,0z" fill="#81C784" opacity="0.7"/></g>
  <path d="M2.8,13h2.4v1.8h-2.4z" fill="#4E9E4A"/><path d="M10,13h2.4v1.8h-2.4z" fill="#4E9E4A"/>
  <g class="pet">

    <path d="M3,3.8h3v2.4h-3z" fill="#6FBF63"/>
    <path d="M9,3.8h3v2.4h-3z" fill="#6FBF63"/>
    <path d="M2,6h11v7h-11z" fill="#6FBF63"/>
    <path d="M4,9.4h7v3.6h-7z" fill="#EAF6DD"/>
    <path d="M6.4,7.6 Q7.5,8.5 8.6,7.6" stroke="#2E5E2B" stroke-width="0.5" fill="none" stroke-linecap="round"/>
    <path d="M2.9,7.4h1.3v0.8h-1.3z" fill="#F2A2A2" opacity="0.7"/>
    <path d="M11.4,7.4h1.3v0.8h-1.3z" fill="#F2A2A2" opacity="0.7"/>
<path d="M-0.2,8h1.8v2h-1.8z" fill="#6FBF63"/><path d="M13.9,8h1.8v2h-1.8z" fill="#6FBF63"/>
    <path d="M4,4.4h1v1.2h-1z" fill="#000000"/><path d="M10,4.4h1v1.2h-1z" fill="#000000"/>
  </g>
</svg>
