<svg xmlns="http://www.w3.org/2000/svg" viewBox="-15 -25 45 45">
  <!-- Generated by scratchpad pet-preview/gen-desktop.js; same pixel art
       as the Android pet_* drawables. -->
  <style>
    @keyframes sway { 0%,100% { transform: rotate(-2deg); } 50% { transform: rotate(2deg); } }
    @keyframes noteFloat { 0% { transform: translateY(1px); opacity: 0; } 30% { opacity: 1; } 100% { transform: translateY(-2.5px); opacity: 0; } }
    .pet { transform-origin: 7.5px 14px; animation: sway 1.6s ease-in-out infinite; }
    .noteL { animation: noteFloat 1.6s ease-in-out infinite; }
    .noteR { animation: noteFloat 1.6s ease-in-out infinite 0.8s; }
  </style>
  <g id="shadow" style="transform-origin:7.5px 15.5px"><path d="M3,15h9v1h-9z" fill="#000000" opacity="0.35"/></g>
  <path d="M2.8,13h2.4v1.8h-2.4z" fill="#4E9E4A"/><path d="M10,13h2.4v1.8h-2.4z" fill="#4E9E4A"/>
  <g class="pet">

    <path d="M3,3.8h3v2.4h-3z" fill="#6FBF63"/>
    <path d="M9,3.8h3v2.4h-3z" fill="#6FBF63"/>
    <path d="M2,6h11v7h-11z" fill="#6FBF63"/>
    <path d="M4,9.4h7v3.6h-7z" fill="#EAF6DD"/>
    <path d="M6.4,7.6 Q7.5,8.5 8.6,7.6" stroke="#2E5E2B" stroke-width="0.5" fill="none" stroke-linecap="round"/>
    <path d="M2.9,7.4h1.3v0.8h-1.3z" fill="#F2A2A2" opacity="0.7"/>
    <path d="M11.4,7.4h1.3v0.8h-1.3z" fill="#F2A2A2" opacity="0.7"/>
<path d="M0.6,9h1.6v2h-1.6z" fill="#6FBF63"/><path d="M13.4,9h1.6v2h-1.6z" fill="#6FBF63"/>
    
    <path d="M3.7,4.7 L4.5,5.5 L5.3,4.7" stroke="#000000" stroke-width="0.6" fill="none" stroke-linecap="round" stroke-linejoin="round"/>
    <path d="M9.7,4.7 L10.5,5.5 L11.3,4.7" stroke="#000000" stroke-width="0.6" fill="none" stroke-linecap="round" stroke-linejoin="round"/>

<path d="M4.9,2.85h5.05v0.75h-5.05z" fill="#1D5C83"/>
<path d="M4.46,2.93h0.75v0.75h-0.75z" fill="#1D5C83"/><path d="M9.66,2.93h0.75v0.75h-0.75z" fill="#1D5C83"/>
<path d="M4.03,3.1h0.75v0.75h-0.75z" fill="#1D5C83"/><path d="M10.11,3.09h0.75v0.75h-0.75z" fill="#1D5C83"/>
<path d="M3.59,3.34h0.75v0.75h-0.75z" fill="#1D5C83"/><path d="M10.57,3.33h0.75v0.75h-0.75z" fill="#1D5C83"/>
<path d="M3.15,3.63h0.75v0.75h-0.75z" fill="#1D5C83"/><path d="M11.02,3.61h0.75v0.75h-0.75z" fill="#1D5C83"/>
<path d="M2.71,3.98h0.75v0.75h-0.75z" fill="#1D5C83"/><path d="M11.48,3.96h0.75v0.75h-0.75z" fill="#1D5C83"/>
<path d="M2.28,4.37h0.75v0.75h-0.75z" fill="#1D5C83"/><path d="M11.94,4.34h0.75v0.75h-0.75z" fill="#1D5C83"/>
<path d="M1.84,4.82h0.75v0.75h-0.75z" fill="#1D5C83"/><path d="M12.39,4.78h0.75v0.75h-0.75z" fill="#1D5C83"/>
<path d="M1.4,5.3h0.75v0.75h-0.75z" fill="#1D5C83"/><path d="M12.85,5.25h0.75v0.75h-0.75z" fill="#1D5C83"/>
<path d="M0.2,7h0.6v2.4h-0.6z" fill="#1D5C83"/><path d="M0.8,6.5h0.6v3.25h-0.6z" fill="#256891"/><path d="M1.4,6h0.6v4.05h-0.6z" fill="#2E7AA8"/>
<path d="M14.2,7h0.6v2.4h-0.6z" fill="#1D5C83"/><path d="M13.6,6.5h0.6v3.25h-0.6z" fill="#256891"/><path d="M13,6h0.6v4.05h-0.6z" fill="#2E7AA8"/>
  </g>

<g class="noteL"><path d="M-5,6h1v1h-1z" fill="#FFC94D"/><path d="M-4,4h1v3h-1z" fill="#FFC94D"/><path d="M-3,4h1v1h-1z" fill="#FFC94D"/></g>
<g class="noteR"><path d="M15,6h1v1h-1z" fill="#FFC94D"/><path d="M16,4h1v3h-1z" fill="#FFC94D"/><path d="M17,4h1v1h-1z" fill="#FFC94D"/></g>
</svg>
