<svg xmlns="http://www.w3.org/2000/svg" viewBox="-15 -25 45 45">
  <!-- Generated by scratchpad pet-preview/gen-desktop.js; same pixel art
       as the Android pet_* drawables. -->
  <style>
    @keyframes hop { 0%,100% { transform: translateY(0); } 40% { transform: translateY(-1.2px); } }
    @keyframes ping { 0%,100% { transform: scale(1); opacity: 0.9; } 50% { transform: scale(1.18); opacity: 1; } }
    .pet { animation: hop 0.8s ease-in-out infinite; }
    .bang { transform-origin: 13.5px -2.5px; animation: ping 0.8s ease-in-out infinite; }
  </style>
  <g id="shadow" style="transform-origin:7.5px 15.5px"><path d="M3,15h9v1h-9z" fill="#000000" opacity="0.35"/></g>
  <path d="M2.8,13h2.4v1.8h-2.4z" fill="#4E9E4A"/><path d="M10,13h2.4v1.8h-2.4z" fill="#4E9E4A"/>
  <g class="pet">

    <path d="M3,3.8h3v2.4h-3z" fill="#6FBF63"/>
    <path d="M9,3.8h3v2.4h-3z" fill="#6FBF63"/>
    <path d="M2,6h11v7h-11z" fill="#6FBF63"/>
    <path d="M4,9.4h7v3.6h-7z" fill="#EAF6DD"/>
    <path d="M6.4,7.6 Q7.5,8.5 8.6,7.6" stroke="#2E5E2B" stroke-width="0.5" fill="none" stroke-linecap="round"/>
    <path d="M2.9,7.4h1.3v0.8h-1.3z" fill="#F2A2A2" opacity="0.7"/>
    <path d="M11.4,7.4h1.3v0.8h-1.3z" fill="#F2A2A2" opacity="0.7"/>
<path d="M0.6,9h1.6v2h-1.6z" fill="#6FBF63"/><path d="M13.4,9h1.6v2h-1.6z" fill="#6FBF63"/>
    <path d="M4,4.4h1v1.2h-1z" fill="#000000"/><path d="M10,4.4h1v1.2h-1z" fill="#000000"/>
  </g>
  <g class="bang">
    <path d="M12.4,-5.6a1.9,1.9 0 1,0 3.8,0a1.9,1.9 0 1,0 -3.8,0z" transform="translate(-1.5,3.1)" fill="#E85D5D"/>
    <path d="M12.55,-4.2h0.9v2.1h-0.9z" fill="#FFFFFF"/>
    <path d="M12.55,-1.6h0.9v0.9h-0.9z" fill="#FFFFFF"/>
  </g>
</svg>
