<svg xmlns="http://www.w3.org/2000/svg" viewBox="-15 -25 45 45">
  <!-- Generated by scratchpad pet-preview/gen-desktop.js; same pixel art
       as the Android pet_* drawables. -->
  <style>
    @keyframes slowBreathe { 0%,100% { transform: scaleY(1); } 50% { transform: scaleY(0.97); } }
    @keyframes zzFloat { 0% { transform: translateY(0.8px); opacity: 0; } 35% { opacity: 1; } 100% { transform: translateY(-2.2px); opacity: 0; } }
    .pet { transform-origin: 7.5px 15px; animation: slowBreathe 4s ease-in-out infinite; }
    .z1 { animation: zzFloat 3s ease-in-out infinite; }
    .z2 { animation: zzFloat 3s ease-in-out infinite 1s; }
    .z3 { animation: zzFloat 3s ease-in-out infinite 2s; }
  </style>
  <g id="shadow" style="transform-origin:7.5px 15.5px"><path d="M3,15h9v1h-9z" fill="#000000" opacity="0.35"/></g>
  <path d="M2.8,13h2.4v1.8h-2.4z" fill="#4E9E4A"/><path d="M10,13h2.4v1.8h-2.4z" fill="#4E9E4A"/>
  <g class="pet">

    <path d="M3,3.8h3v2.4h-3z" fill="#6FBF63"/>
    <path d="M9,3.8h3v2.4h-3z" fill="#6FBF63"/>
    <path d="M2,6h11v7h-11z" fill="#6FBF63"/>
    <path d="M4,9.4h7v3.6h-7z" fill="#EAF6DD"/>
    <path d="M6.4,7.6 Q7.5,8.5 8.6,7.6" stroke="#2E5E2B" stroke-width="0.5" fill="none" stroke-linecap="round"/>
    <path d="M2.9,7.4h1.3v0.8h-1.3z" fill="#F2A2A2" opacity="0.7"/>
    <path d="M11.4,7.4h1.3v0.8h-1.3z" fill="#F2A2A2" opacity="0.7"/>
<path d="M0.6,9h1.6v2h-1.6z" fill="#6FBF63"/><path d="M13.4,9h1.6v2h-1.6z" fill="#6FBF63"/>
    
    <path d="M3.7,5.1 h1.6" stroke="#000000" stroke-width="0.5" fill="none" stroke-linecap="round"/>
    <path d="M9.7,5.1 h1.6" stroke="#000000" stroke-width="0.5" fill="none" stroke-linecap="round"/>
  </g>

<g class="zz z1"><path d="M11,-1 h2.4 l-2.4,2.4 h2.4" stroke="#8FA3B8" stroke-width="0.5" fill="none" stroke-linecap="round" stroke-linejoin="round"/></g>
<g class="zz z2"><path d="M14,-4 h1.8 l-1.8,1.8 h1.8" stroke="#AEBECF" stroke-width="0.45" fill="none" stroke-linecap="round" stroke-linejoin="round"/></g>
<g class="zz z3"><path d="M16.4,-6.6 h1.4 l-1.4,1.4 h1.4" stroke="#C4D0DD" stroke-width="0.4" fill="none" stroke-linecap="round" stroke-linejoin="round"/></g>
</svg>
