<svg xmlns="http://www.w3.org/2000/svg" viewBox="-15 -25 45 45">
  <!-- Generated by scratchpad pet-preview/gen-desktop.js; same pixel art
       as the Android pet_* drawables. -->
  <style>
    @keyframes breathe { 0%,100% { transform: translateY(0); } 50% { transform: translateY(-0.3px); } }
    @keyframes dotPulse { 0%,60%,100% { opacity: 0.25; } 30% { opacity: 1; } }
    .pet { animation: breathe 3s ease-in-out infinite; }
    .d1 { animation: dotPulse 1.5s ease-in-out infinite; }
    .d2 { animation: dotPulse 1.5s ease-in-out infinite 0.25s; }
    .d3 { animation: dotPulse 1.5s ease-in-out infinite 0.5s; }
  </style>
  <g id="shadow" style="transform-origin:7.5px 15.5px"><path d="M3,15h9v1h-9z" fill="#000000" opacity="0.35"/></g>
  <g class="pet">

    <path d="M3,3.8h3v2.4h-3z" fill="#6FBF63"/>
    <path d="M9,3.8h3v2.4h-3z" fill="#6FBF63"/>
    <path d="M2,6h11v7h-11z" fill="#6FBF63"/>
    <path d="M4,9.4h7v3.6h-7z" fill="#EAF6DD"/>
    <path d="M6.4,7.6 Q7.5,8.5 8.6,7.6" stroke="#2E5E2B" stroke-width="0.5" fill="none" stroke-linecap="round"/>
    <path d="M2.9,7.4h1.3v0.8h-1.3z" fill="#F2A2A2" opacity="0.7"/>
    <path d="M11.4,7.4h1.3v0.8h-1.3z" fill="#F2A2A2" opacity="0.7"/>
<path d="M0.6,9h1.6v2h-1.6z" fill="#6FBF63"/><path d="M13.4,9h1.6v2h-1.6z" fill="#6FBF63"/>
    <path d="M4,4.4h1v1.2h-1z" fill="#000000"/><path d="M10,4.4h1v1.2h-1z" fill="#000000"/>
  </g>

<path d="M7.8,1.6a0.5,0.5 0 1,0 1,0a0.5,0.5 0 1,0 -1,0z" fill="#FFFFFF" stroke="#D8CCB4" stroke-width="0.15"/>
<path d="M8.55,-0.1a0.85,0.85 0 1,0 1.7,0a0.85,0.85 0 1,0 -1.7,0z" fill="#FFFFFF" stroke="#D8CCB4" stroke-width="0.15"/>
<path d="M8.1,-6.4h5.4a1.6,1.6 0 0,1 1.6,1.6v1.4a1.6,1.6 0 0,1 -1.6,1.6h-5.4a1.6,1.6 0 0,1 -1.6,-1.6v-1.4a1.6,1.6 0 0,1 1.6,-1.6z" fill="#FFFFFF" stroke="#D8CCB4" stroke-width="0.15"/>
<path class="dot d1" d="M8.15,-4.1a0.55,0.55 0 1,0 1.1,0a0.55,0.55 0 1,0 -1.1,0z" fill="#256891"/>
<path class="dot d2" d="M10.25,-4.1a0.55,0.55 0 1,0 1.1,0a0.55,0.55 0 1,0 -1.1,0z" fill="#256891"/>
<path class="dot d3" d="M12.35,-4.1a0.55,0.55 0 1,0 1.1,0a0.55,0.55 0 1,0 -1.1,0z" fill="#256891"/>
</svg>
