<svg xmlns="http://www.w3.org/2000/svg" viewBox="-15 -25 45 45">
  <style>
    .huff { animation: huff 1.6s ease-in-out infinite; transform-origin: 7.5px 17px; }
    @keyframes huff { 0%,100% { transform: rotate(-1.5deg); } 50% { transform: rotate(1.5deg); } }
  </style>

  <ellipse cx="7.5" cy="17.5" rx="8.5" ry="1.8" fill="rgba(0,0,0,0.15)"/>

  <g class="huff">
    <rect x="0" y="3" width="15" height="14.5" rx="6.5" fill="#f3d9a8"/>
    <ellipse cx="7.5" cy="12" rx="4.2" ry="4.8" fill="#fbeed2" opacity="0.7"/>
    <path d="M 2 8.4 Q 7.5 11.4 13 8.4 L 13 10.4 Q 7.5 13.2 2 10.4 Z" fill="#f3d9a8"/>

    <polygon points="1,-3.6 3,-9.6 5.6,-4.4" fill="#f3d9a8"/>
    <polygon points="14,-3.6 12,-9.6 9.4,-4.4" fill="#f3d9a8"/>
    <polygon points="2,-4.6 3.2,-8.2 4.6,-5" fill="#f6bfcb"/>
    <polygon points="13,-4.6 11.8,-8.2 10.4,-5" fill="#f6bfcb"/>
    <circle cx="7.5" cy="-1" r="6.8" fill="#f3d9a8"/>
    <ellipse cx="3.3" cy="0.6" rx="1.3" ry="0.9" fill="#f6bfcb" opacity="0.7"/>
    <ellipse cx="11.7" cy="0.6" rx="1.3" ry="0.9" fill="#f6bfcb" opacity="0.7"/>

    <path d="M 3.4 -2.4 L 6.4 -1.4" stroke="#3a2a1e" stroke-width="0.7" stroke-linecap="round"/>
    <path d="M 11.6 -2.4 L 8.6 -1.4" stroke="#3a2a1e" stroke-width="0.7" stroke-linecap="round"/>
    <ellipse cx="4.9" cy="-0.6" rx="1.7" ry="1.6" fill="#3a2a1e"/>
    <ellipse cx="10.1" cy="-0.6" rx="1.7" ry="1.6" fill="#3a2a1e"/>
    <path d="M 6 2.6 Q 7.5 2 9 2.6" stroke="#7a4a3a" stroke-width="0.6" fill="none" stroke-linecap="round"/>
  </g>
</svg>
